<?xml version="1.0" standalone="no"?>
<!DOCTYPE svg PUBLIC "-//W3C//DTD SVG 20010904//EN"
 "http://www.w3.org/TR/2001/REC-SVG-20010904/DTD/svg10.dtd">
<svg version="1.0" xmlns="http://www.w3.org/2000/svg"
 width="500.000000pt" height="500.000000pt" viewBox="0 0 500.000000 500.000000"
 preserveAspectRatio="xMidYMid meet">

<g transform="translate(0.000000,500.000000) scale(0.100000,-0.100000)"
fill="#000000" stroke="none">
<path d="M1006 4253 c13 -186 136 -607 246 -843 77 -167 108 -239 108 -254 0
-9 3 -16 8 -16 10 1 105 124 190 248 40 59 95 139 121 177 l48 70 -314 300
c-173 165 -336 319 -363 343 l-49 43 5 -68z"/>
<path d="M3650 4087 c-135 -123 -294 -271 -354 -328 l-108 -104 23 -40 c13
-22 55 -83 95 -135 39 -52 94 -129 122 -170 29 -41 67 -93 86 -115 l33 -39 32
63 c18 34 45 95 61 134 15 40 51 128 79 197 72 173 118 329 146 494 25 148 40
266 33 266 -2 0 -114 -101 -248 -223z"/>
<path d="M2325 4091 c-106 -56 -249 -141 -268 -160 -10 -10 6 -44 63 -133 22
-34 40 -65 40 -70 0 -4 -57 -8 -127 -8 l-128 0 -20 -29 c-11 -16 -53 -77 -94
-137 -40 -60 -86 -125 -101 -144 -14 -19 -66 -93 -115 -165 -48 -71 -111 -161
-139 -199 -28 -38 -69 -97 -91 -132 -51 -80 -273 -408 -334 -493 -25 -35 -64
-92 -86 -127 -46 -73 -246 -367 -318 -468 -26 -37 -51 -74 -54 -82 -4 -12 105
-14 731 -14 l736 0 -61 118 c-34 64 -68 124 -76 132 -12 13 -66 15 -386 12
-205 -1 -396 1 -424 5 l-53 8 113 185 c63 102 136 219 163 260 28 41 59 90 70
107 24 41 192 307 259 410 l50 78 60 0 60 0 44 -75 c97 -167 143 -246 150
-260 5 -8 33 -58 64 -111 30 -53 57 -105 59 -115 2 -10 22 33 46 96 24 63 65
159 90 213 l47 98 73 -85 c40 -47 79 -86 86 -86 13 0 125 119 159 169 16 24
17 23 92 -129 41 -84 82 -177 91 -207 9 -30 17 -53 18 -51 2 2 58 110 125 242
158 309 147 296 222 296 l59 0 57 -87 c99 -155 150 -237 182 -293 18 -30 63
-102 101 -160 39 -58 75 -116 82 -130 7 -14 54 -89 104 -166 87 -134 124 -196
124 -209 0 -3 -186 -5 -414 -5 l-415 0 -45 -90 c-26 -49 -55 -104 -66 -122
-11 -18 -20 -37 -20 -43 0 -7 252 -10 735 -10 404 0 735 2 735 3 0 2 -26 39
-57 82 -131 177 -177 242 -254 356 -45 65 -107 155 -139 199 -83 115 -140 198
-327 480 -338 508 -528 791 -557 832 l-31 42 -142 1 c-87 0 -143 4 -143 10 0
5 17 38 38 72 20 35 45 79 54 99 l16 36 -51 30 c-69 41 -337 183 -346 183 -3
0 -55 -27 -116 -59z m197 -520 c43 -65 80 -126 84 -135 7 -18 -15 -50 -114
-164 -41 -46 -58 -60 -67 -52 -7 6 -44 57 -83 114 l-70 103 55 79 c30 43 58
86 61 94 12 27 46 80 52 80 3 0 40 -54 82 -119z m397 -207 c-20 -24 -168 -119
-246 -158 l-73 -36 0 80 c0 44 4 80 9 80 5 0 16 3 25 6 11 4 15 -4 18 -37 l3
-43 28 57 c32 63 28 61 180 64 58 1 66 -1 56 -13z m-770 -4 c45 -1 47 -2 80
-56 18 -31 47 -72 64 -91 16 -18 27 -36 25 -39 -3 -2 -59 13 -124 35 -111 37
-122 43 -166 92 -27 29 -48 57 -48 62 0 6 25 7 61 3 34 -3 83 -6 108 -6z"/>
<path d="M1630 2768 c-28 -46 -94 -150 -145 -233 -52 -82 -110 -177 -129 -210
-19 -33 -55 -91 -80 -130 -25 -38 -46 -73 -46 -77 0 -4 44 -8 98 -8 l97 0 24
53 c98 211 152 332 176 396 27 72 28 73 44 52 9 -12 35 -63 58 -114 99 -221
138 -303 161 -344 l24 -43 79 0 79 0 -61 118 c-34 64 -76 142 -94 172 -50 85
-129 245 -176 353 -23 53 -45 97 -50 97 -4 0 -31 -37 -59 -82z"/>
<path d="M3138 2732 c-31 -64 -68 -137 -82 -162 -75 -138 -236 -448 -236 -454
0 -4 34 -6 76 -4 l76 3 89 175 c49 96 104 211 124 254 20 43 38 76 41 73 3 -3
57 -117 119 -254 l113 -248 91 -3 c50 -1 91 0 91 4 0 4 -26 48 -58 98 -108
169 -164 261 -312 514 -40 67 -73 122 -74 122 0 0 -27 -53 -58 -118z"/>
<path d="M2421 2573 c-31 -4 -32 -6 -25 -31 4 -15 9 -390 11 -834 3 -721 2
-808 -12 -808 -13 0 -15 73 -15 651 l0 650 -57 -31 c-32 -17 -69 -39 -81 -48
l-24 -18 36 -28 c35 -26 36 -28 36 -97 0 -66 1 -69 19 -59 35 18 40 11 21 -32
-16 -35 -20 -66 -20 -160 l0 -116 -50 -36 c-39 -28 -51 -44 -60 -78 -14 -59
-39 -106 -68 -128 -20 -16 -22 -22 -12 -40 7 -13 9 -47 6 -88 -6 -67 -3 -72 8
-19 4 16 33 56 64 90 32 34 69 81 82 105 13 23 28 42 33 42 5 0 7 -42 5 -96
-3 -85 -6 -98 -25 -114 l-22 -18 36 -48 37 -49 4 -129 4 -130 54 -65 c30 -36
54 -71 54 -79 0 -8 16 10 36 39 20 30 47 65 60 79 21 23 23 36 26 151 l3 126
37 52 c36 52 36 53 17 72 -16 16 -19 34 -19 114 0 52 3 95 8 95 4 0 15 -17 25
-38 9 -20 49 -70 87 -109 l70 -73 0 44 c0 25 5 48 11 51 7 5 3 15 -10 29 -11
11 -32 48 -46 81 -43 101 -49 108 -94 134 l-44 26 -4 122 c-2 70 -10 139 -18
163 -15 43 -14 45 16 30 18 -10 19 -7 19 63 0 73 0 74 36 99 l35 26 -28 19
c-15 11 -54 34 -85 52 l-58 32 0 -656 c0 -581 -2 -655 -15 -655 -14 0 -15 92
-13 840 l3 840 -30 -2 c-16 0 -45 -3 -64 -5z"/>
<path d="M1626 2460 c-26 -67 -27 -70 -11 -104 21 -44 45 -55 45 -20 0 14 10
39 21 56 l21 29 -24 55 -25 54 -27 -70z"/>
<path d="M3206 2486 c-22 -52 -22 -56 3 -108 l22 -48 27 17 c15 9 29 18 31 20
2 1 -4 19 -14 38 -9 20 -25 55 -35 77 l-18 41 -16 -37z"/>
<path d="M3235 2209 c-50 -39 -94 -78 -98 -85 -7 -12 16 -14 128 -14 101 0
135 3 135 13 -1 6 -18 45 -38 85 l-38 73 -89 -72z"/>
<path d="M1527 2217 c-11 -23 -25 -57 -33 -74 l-14 -33 127 0 128 1 -42 37
c-41 37 -138 112 -145 112 -1 0 -11 -19 -21 -43z"/>
<path d="M3140 1498 c0 -5 7 -8 16 -8 8 0 29 -13 45 -29 25 -26 29 -37 29 -86
0 -54 -21 -115 -40 -115 -5 0 -30 -18 -56 -41 -26 -22 -41 -39 -33 -38 31 6
80 -14 105 -44 24 -29 26 -35 22 -125 l-3 -94 -37 -34 -38 -34 140 0 141 0
-46 47 -45 48 0 102 0 103 66 0 c59 0 68 -3 95 -29 17 -18 29 -40 29 -56 0
-15 4 -24 10 -20 6 3 10 33 10 65 l0 59 38 6 c20 4 50 9 65 12 l28 5 -43 27
c-24 15 -56 46 -72 70 l-29 42 -13 -29 c-21 -50 -59 -72 -125 -72 l-59 0 0 79
c0 44 3 86 6 95 5 13 25 16 120 16 l114 0 30 -42 c16 -22 30 -48 31 -57 1 -12
47 156 49 179 0 3 -124 5 -275 5 -151 0 -275 -3 -275 -7z m427 -260 c-3 -8 -6
-5 -6 6 -1 11 2 17 5 13 3 -3 4 -12 1 -19z"/>
<path d="M1380 1488 c0 -3 -11 -50 -25 -104 -15 -61 -31 -105 -43 -114 -10 -8
-38 -32 -63 -52 l-44 -38 41 0 c70 0 76 -22 48 -182 -19 -110 -34 -142 -77
-165 l-32 -18 30 -2 c17 -1 73 -4 126 -5 l95 -3 -29 47 -30 48 10 102 c6 57
17 118 24 136 l14 33 17 -33 c10 -18 38 -78 63 -133 l46 -99 23 49 c61 132 81
172 95 194 l15 23 9 -23 c5 -13 11 -76 14 -140 6 -113 5 -119 -21 -164 -28
-52 -33 -66 -14 -47 8 8 53 12 137 12 l126 0 -35 19 c-54 29 -72 61 -86 158
-8 48 -14 104 -14 124 0 41 24 69 61 69 21 0 18 5 -29 48 -52 46 -54 49 -81
157 -21 81 -30 105 -36 90 -31 -83 -98 -235 -111 -253 -11 -16 -25 -22 -53
-22 -38 0 -38 1 -74 78 -19 42 -47 106 -62 142 -26 62 -35 80 -35 68z"/>
</g>
</svg>
