<?xml version="1.0" standalone="no"?>
<!DOCTYPE svg PUBLIC "-//W3C//DTD SVG 20010904//EN"
 "http://www.w3.org/TR/2001/REC-SVG-20010904/DTD/svg10.dtd">
<svg version="1.0" xmlns="http://www.w3.org/2000/svg"
 width="280.000000pt" height="280.000000pt" viewBox="0 0 280.000000 280.000000"
 preserveAspectRatio="xMidYMid meet">

<g transform="translate(0.000000,280.000000) scale(0.100000,-0.100000)"
fill="#000000" stroke="none">
<path d="M295 2419 c29 -94 101 -186 175 -224 18 -9 30 -18 28 -21 -7 -6 -197
84 -232 111 -48 34 -56 38 -56 22 0 -29 92 -125 158 -166 57 -35 63 -41 40
-41 -23 0 -167 43 -227 67 -25 10 33 -57 69 -79 59 -37 92 -50 160 -64 l65
-13 -110 4 c-60 3 -152 8 -202 11 -58 4 -93 3 -93 -3 0 -17 76 -53 142 -67
l63 -14 -57 -1 c-131 -2 -44 -54 93 -55 l86 -1 -58 -21 c-32 -12 -66 -27 -74
-34 -33 -27 23 -34 100 -13 17 5 18 4 6 -10 -24 -30 19 -34 116 -10 16 3 21 0
20 -14 -1 -11 4 -17 12 -15 29 6 61 -21 67 -57 6 -32 8 -33 15 -13 18 48 58 4
60 -67 0 -17 6 -8 17 29 19 64 25 72 72 88 l35 12 -30 -24 c-27 -22 -28 -25
-12 -32 10 -3 30 -1 45 5 l27 12 -25 -20 c-20 -16 -23 -22 -12 -32 6 -7 12 -9
12 -4 0 4 9 0 20 -10 11 -10 30 -49 41 -87 12 -38 25 -65 31 -62 5 4 7 15 5
26 -7 26 12 78 29 78 20 0 38 -38 50 -110 10 -53 12 -58 13 -27 2 72 40 107
42 40 l2 -38 6 33 c3 18 9 33 14 32 4 0 12 0 17 0 6 0 11 -17 11 -37 1 -28 3
-31 6 -13 6 32 31 60 54 60 12 0 21 10 24 28 4 15 12 41 20 58 7 18 12 40 11
50 -2 11 -1 13 1 6 3 -9 12 -7 30 8 17 13 41 20 72 20 65 0 125 11 110 20 -6
5 -8 13 -4 20 6 10 11 9 21 -5 10 -13 20 -16 41 -11 72 18 88 18 107 -3 11
-12 15 -21 10 -21 -16 -1 69 -36 119 -50 27 -7 51 -20 55 -28 4 -13 7 -12 13
4 6 15 7 13 8 -11 0 -16 2 -61 5 -100 4 -64 4 -66 -4 -17 -11 75 -26 106 -61
126 -38 22 -42 18 -23 -19 8 -16 13 -38 11 -49 -4 -19 -4 -19 -6 2 l-1 22 -20
-20 c-11 -11 -27 -20 -36 -20 -10 0 -5 -9 15 -26 17 -14 31 -36 32 -47 0 -21
1 -21 9 -2 13 30 12 6 -2 -31 l-11 -32 -47 26 -46 26 -44 -21 c-39 -20 -44
-21 -66 -6 -40 26 -28 74 26 101 14 7 17 10 6 7 -40 -11 -94 14 -137 65 -51
60 -68 67 -125 45 -48 -18 -67 -45 -79 -109 -5 -26 -10 -34 -16 -25 -7 11 -11
11 -21 1 -9 -9 -10 -19 -1 -42 6 -17 7 -27 2 -24 -6 3 -7 -5 -3 -22 4 -15 3
-25 -2 -22 -5 3 -19 -18 -30 -48 -25 -64 -21 -72 6 -11 19 41 20 41 20 12 0
-17 5 -36 11 -42 6 -6 9 -23 7 -39 -2 -21 -9 -30 -25 -32 -16 -2 -23 -10 -23
-25 0 -12 -24 -51 -53 -87 -28 -36 -58 -77 -66 -93 -18 -33 -46 -42 -114 -34
-38 5 -48 4 -37 -4 12 -9 11 -10 -7 -6 -13 3 -26 0 -30 -5 -3 -7 -1 -8 5 -4 7
4 12 5 12 2 0 -13 -63 -36 -83 -30 -21 6 -21 5 -5 -12 14 -15 21 -16 43 -6 25
11 25 11 14 -11 -7 -12 -23 -35 -35 -50 -27 -32 -32 -62 -10 -54 8 3 22 0 32
-8 16 -11 23 -11 45 1 15 7 29 10 33 7 3 -3 15 2 26 12 11 10 20 15 20 10 0
-4 10 5 22 20 20 26 22 26 29 9 11 -28 10 -114 -1 -156 -7 -22 -19 -39 -30
-43 -11 -4 -18 -10 -15 -14 5 -10 -104 -25 -152 -22 -24 2 -33 -2 -33 -12 0
-9 6 -18 13 -20 10 -4 10 -6 0 -6 -7 -1 -13 -6 -13 -12 0 -6 9 -8 20 -4 11 3
20 2 20 -3 0 -13 53 -22 65 -11 5 5 0 9 -15 10 -18 1 -20 3 -7 6 9 2 14 9 11
15 -5 8 1 9 17 5 13 -4 28 -7 32 -7 5 0 6 -4 2 -9 -3 -6 25 -9 69 -8 42 1 72
-2 68 -7 -3 -5 9 -6 28 -2 42 8 33 -2 -17 -19 -37 -13 -36 -13 37 -10 54 2 62
1 30 -4 l-45 -7 53 -4 c30 -3 59 -2 65 2 8 5 7 8 -3 8 -8 1 3 7 25 15 50 18
55 18 31 0 -16 -12 -9 -14 63 -12 44 1 81 -2 81 -6 0 -14 84 4 93 19 9 16 47
19 47 4 0 -5 -7 -10 -16 -10 -8 0 -12 -4 -9 -10 8 -12 68 -13 80 -1 12 10 55
-4 55 -18 0 -5 -10 -7 -22 -4 -21 4 -21 3 -5 -7 18 -12 48 -7 46 7 -4 22 2 25
15 8 12 -17 17 -18 40 -7 19 8 33 9 46 2 23 -12 33 -13 26 -1 -11 16 41 18 53
2 7 -9 29 -17 49 -18 27 -2 33 0 22 7 -13 9 -13 10 0 10 13 0 13 1 0 10 -25
15 0 27 70 33 41 4 58 2 45 -3 -13 -6 -2 -7 30 -3 28 3 52 7 54 9 1 1 -15 8
-38 14 -36 9 -41 14 -37 35 3 14 0 25 -6 25 -6 0 -9 3 -5 6 3 4 14 3 24 0 15
-6 15 -8 3 -16 -11 -7 -4 -9 22 -8 39 1 50 14 23 24 -8 4 -12 10 -9 15 3 5 -8
9 -24 9 -31 0 -58 -22 -47 -40 3 -5 -1 -10 -9 -10 -8 0 -18 5 -21 10 -3 6 -1
10 4 10 6 0 11 7 11 15 0 8 -4 15 -10 15 -5 0 -10 8 -10 18 0 14 -2 15 -9 2
-6 -8 -8 -17 -5 -21 2 -4 -6 -6 -19 -6 -12 1 -33 -3 -47 -7 -24 -8 -24 -8 -5
8 19 15 19 15 -12 16 -42 0 -87 39 -101 88 -7 22 -15 73 -18 115 -6 71 -5 79
21 124 18 30 22 43 12 34 -15 -12 -20 -11 -37 4 -18 16 -20 30 -19 119 1 56 4
112 8 126 7 24 7 24 20 -10 7 -19 17 -43 22 -52 5 -10 9 -27 9 -39 0 -18 2
-20 16 -9 8 8 14 9 13 4 -4 -22 2 -35 13 -28 7 5 8 3 3 -6 -5 -8 1 -20 16 -32
13 -11 18 -16 10 -12 -10 5 -12 3 -6 -7 5 -7 14 -36 21 -64 11 -42 14 -46 20
-27 10 33 38 24 42 -13 2 -17 8 -34 13 -39 5 -6 10 -37 11 -70 0 -34 3 -47 5
-29 5 40 33 67 33 32 0 -17 3 -20 9 -11 7 11 10 10 15 -3 3 -9 6 -27 6 -40 0
-14 9 -29 20 -35 12 -6 20 -21 20 -36 0 -22 3 -24 23 -18 31 9 32 11 16 31 -7
10 0 5 17 -10 20 -18 37 -25 47 -21 16 6 15 10 -5 43 l-21 36 26 -24 c38 -34
45 -19 13 29 -23 36 -24 40 -7 31 28 -15 41 -14 41 5 0 8 -5 12 -11 8 -6 -3
-24 10 -41 30 -16 20 -34 36 -39 36 -6 0 0 -10 13 -22 13 -13 17 -18 8 -12 -8
7 -34 15 -57 19 -23 3 -46 12 -51 18 -9 13 -33 89 -29 94 2 1 18 -19 37 -44
19 -26 42 -49 50 -51 8 -2 5 3 -6 12 -12 9 -34 36 -49 61 -14 25 -30 43 -35
40 -4 -3 -11 2 -14 11 -9 24 -7 31 5 14 9 -13 10 -13 6 0 -2 8 -9 14 -15 13
-5 -1 -32 27 -59 64 -32 43 -49 60 -51 49 -9 -42 -52 11 -52 64 0 20 -7 62
-15 94 -9 33 -14 61 -11 63 2 2 14 -20 25 -49 17 -42 20 -46 15 -18 -15 90
-15 86 -6 65 9 -19 9 -19 16 3 4 12 10 22 14 22 4 0 14 4 22 10 12 7 11 12 -5
32 l-20 23 27 -24 c15 -12 31 -20 36 -17 6 3 13 0 15 -6 3 -7 6 -1 6 14 1 18
10 33 27 44 33 22 43 9 46 -61 1 -45 2 -46 5 -12 3 21 13 53 24 70 10 18 19
39 19 48 0 9 9 24 20 34 19 17 20 17 20 0 0 -10 3 -15 7 -11 8 8 10 13 12 46
1 16 8 20 35 20 34 0 35 -1 38 -42 l4 -43 8 38 c9 39 51 95 63 84 3 -4 14 5
23 21 13 19 14 31 7 40 -8 11 -3 13 29 10 24 -2 38 1 37 8 -1 7 8 9 22 6 28
-5 35 14 8 21 -10 3 8 3 40 0 37 -4 57 -2 57 5 0 6 -8 12 -17 15 -10 2 11 2
46 -1 54 -4 63 -3 59 10 -5 11 2 14 30 14 55 -1 53 17 -3 31 l-50 11 45 1 c25
1 63 10 85 20 l40 19 -45 2 -45 2 35 7 c40 8 100 41 100 54 0 5 -14 7 -31 3
-63 -12 -211 -27 -216 -22 -4 3 2 6 13 6 44 0 170 78 153 95 -3 2 -35 -7 -72
-20 -92 -34 -110 -31 -53 6 26 17 57 46 70 63 41 56 42 61 5 39 -41 -24 -82
-46 -129 -69 -35 -17 -35 -16 11 27 41 38 87 115 76 126 -2 2 -29 -17 -58 -41
-32 -26 -87 -57 -132 -75 l-78 -29 31 52 c34 61 41 113 13 97 -10 -5 -49 -39
-87 -74 -38 -36 -75 -63 -82 -60 -7 3 -31 -10 -54 -28 -30 -24 -43 -30 -49
-21 -5 9 -14 5 -31 -13 -12 -13 -27 -22 -32 -19 -5 3 -15 -1 -21 -8 -7 -8 -28
-21 -47 -28 -19 -8 -58 -28 -87 -46 -47 -30 -70 -57 -159 -188 -12 -17 -33
-41 -46 -54 l-25 -22 -26 20 c-20 16 -27 33 -33 77 -4 37 -3 63 5 75 17 28 14
57 -6 53 -71 -14 -83 -14 -83 0 0 8 -9 19 -20 25 -11 6 -20 17 -20 25 0 9 -9
15 -21 15 -39 0 -13 25 29 28 29 2 42 8 42 18 0 22 -31 30 -42 10 -5 -9 -14
-13 -20 -10 -6 4 -14 0 -19 -7 -4 -7 -11 -10 -15 -7 -3 4 5 18 19 32 15 14 22
26 17 26 -19 0 -60 -68 -71 -119 -12 -58 -3 -95 32 -127 19 -17 26 -59 12 -67
-9 -6 -30 22 -106 137 -56 85 -100 123 -187 164 -30 14 -63 35 -72 46 -13 15
-17 17 -18 6 0 -9 -12 -1 -31 19 -21 24 -33 31 -38 22 -6 -9 -23 0 -60 29 -29
23 -55 39 -58 36 -4 -3 -2 -22 4 -41 10 -33 10 -35 -10 -35 -16 0 -18 3 -8 9
9 6 11 16 6 32 -8 27 -211 229 -230 229 -9 0 -10 -11 -4 -46 10 -50 37 -103
77 -146 31 -33 32 -33 -43 -7 -91 31 -183 85 -259 152 -55 49 -67 56 -61 36z
m480 -240 c16 -6 13 -8 -14 -8 -32 -1 -33 -2 -18 -19 20 -22 13 -32 -22 -31
-25 1 -24 2 4 8 30 7 30 7 8 19 -13 7 -28 22 -34 33 -10 20 -9 21 23 14 18 -4
42 -11 53 -16z m-205 -23 c25 -8 36 -15 25 -15 -21 1 -98 27 -80 28 6 0 30 -6
55 -13z m93 -23 c-7 -2 -19 -2 -25 0 -7 3 -2 5 12 5 14 0 19 -2 13 -5z m1507
-32 c0 -10 -6 -21 -14 -24 -11 -4 -11 -1 -2 19 13 29 16 30 16 5z m-1240 5 c0
-11 -19 -15 -25 -6 -3 5 1 10 9 10 9 0 16 -2 16 -4z m1340 1 c0 -2 -12 -14
-27 -28 -15 -13 -22 -16 -14 -7 7 9 10 22 6 28 -3 6 3 10 14 10 12 0 21 -1 21
-3z m-63 -13 c-3 -3 -12 -4 -19 -1 -8 3 -5 6 6 6 11 1 17 -2 13 -5z m-1562
-24 c-3 -5 -16 -10 -28 -10 -22 -1 -22 -1 -3 -15 26 -19 16 -19 -35 1 -29 12
-37 19 -27 25 19 12 101 11 93 -1z m1712 4 c-3 -3 -12 -4 -19 -1 -8 3 -5 6 6
6 11 1 17 -2 13 -5z m-60 -10 c-3 -3 -12 -4 -19 -1 -8 3 -5 6 6 6 11 1 17 -2
13 -5z m-1610 -40 c-3 -3 -12 -4 -19 -1 -8 3 -5 6 6 6 11 1 17 -2 13 -5z
m1690 -10 c-16 -9 -31 -13 -35 -10 -3 3 1 7 9 8 8 1 -13 4 -46 8 l-60 7 80 1
c77 1 79 1 52 -14z m-1746 -8 c-18 -10 -20 -15 -10 -19 9 -4 7 -6 -6 -6 -11 0
-27 3 -35 9 -13 8 -13 9 0 14 8 2 22 7 30 9 31 11 44 6 21 -7z m294 4 c3 -5
-1 -10 -9 -10 -9 0 -16 5 -16 10 0 6 4 10 9 10 6 0 13 -4 16 -10z m1449 -42
c-3 -4 -12 -8 -20 -8 -8 0 -12 5 -9 10 3 6 -3 10 -14 10 -12 0 -21 4 -21 9 0
5 15 5 35 -1 19 -6 32 -15 29 -20z m-1670 7 c-10 -8 -30 -14 -44 -14 -24 1
-24 1 5 14 41 19 65 19 39 0z m171 -5 c-3 -5 -12 -10 -18 -10 -7 0 -6 4 3 10
19 12 23 12 15 0z m1230 0 c3 -5 2 -10 -4 -10 -5 0 -13 5 -16 10 -3 6 -2 10 4
10 5 0 13 -4 16 -10z m-1100 -20 c3 -5 1 -10 -4 -10 -6 0 -11 5 -11 10 0 6 2
10 4 10 3 0 8 -4 11 -10z m1309 -5 c-19 -15 -19 -15 1 -8 18 6 18 5 6 -10 -7
-9 -25 -17 -40 -16 -23 0 -24 1 -6 9 18 7 17 9 -10 16 l-30 8 35 7 c60 11 65
10 44 -6z m-1608 -15 c0 -21 -21 -26 -46 -10 -11 7 -11 10 -2 10 7 0 10 5 7
10 -3 6 4 10 17 10 17 0 24 -6 24 -20z m248 11 c-3 -3 -10 -7 -15 -7 -19 -3
-19 -4 -7 -18 11 -13 16 -12 38 1 14 9 20 10 13 3 -9 -10 -7 -17 10 -31 12
-10 16 -18 10 -19 -7 0 -13 5 -13 10 0 6 -13 10 -30 10 -16 0 -30 5 -30 11 0
7 -11 9 -26 6 l-26 -5 27 22 c24 20 66 33 49 17z m1191 -1 c-3 -5 -12 -10 -18
-10 -7 0 -6 4 3 10 19 12 23 12 15 0z m-1738 -7 c-20 -2 -52 -2 -70 0 -17 2 0
4 38 4 39 0 53 -2 32 -4z m220 1 c-3 -3 -12 -4 -19 -1 -8 3 -5 6 6 6 11 1 17
-2 13 -5z m-60 -10 c-3 -3 -12 -4 -19 -1 -8 3 -5 6 6 6 11 1 17 -2 13 -5z
m1866 -1 c-7 -2 -19 -2 -25 0 -7 3 -2 5 12 5 14 0 19 -2 13 -5z m-1948 -19
c-27 -7 -57 -13 -65 -13 -21 1 70 27 95 27 11 0 -2 -6 -30 -14z m2018 9 c-7
-2 -19 -2 -25 0 -7 3 -2 5 12 5 14 0 19 -2 13 -5z m-397 -25 c-10 -6 -20 -7
-24 -3 -9 8 20 25 31 18 5 -3 2 -10 -7 -15z m-1339 -30 c-21 -14 -28 -9 -15
12 9 13 14 16 20 7 4 -6 2 -15 -5 -19z m129 5 c-6 -13 -17 -23 -25 -23 -11 0
-11 3 -1 15 9 11 9 15 1 15 -7 0 -10 4 -7 8 2 4 13 8 23 8 16 0 18 -4 9 -23z
m1349 17 c3 -6 -4 -10 -17 -10 -18 0 -20 2 -8 10 19 12 18 12 25 0z m-99 -9
c-4 -5 0 -12 6 -14 7 -3 3 -6 -10 -6 -13 -1 -21 3 -18 8 4 5 0 12 -6 14 -7 3
-3 6 10 6 13 1 21 -3 18 -8z m-1097 -23 c11 -15 11 -18 -1 -18 -7 0 -14 10
-15 21 -1 12 -1 20 0 18 2 -2 9 -12 16 -21z m949 -14 c-13 -13 -15 -13 -15 0
0 8 4 13 9 10 4 -3 8 3 9 13 0 12 2 14 6 5 3 -8 -1 -20 -9 -28z m-1053 6 c3
-5 -3 -10 -15 -10 -12 0 -18 5 -15 10 3 6 10 10 15 10 5 0 12 -4 15 -10z
m1157 -2 c-8 -8 -9 -15 -1 -25 9 -10 7 -13 -5 -13 -10 0 -15 4 -11 9 3 5 0 13
-6 17 -8 4 -7 9 2 15 20 13 35 11 21 -3z m-1157 -27 c-3 -5 2 -11 11 -13 10
-2 5 -7 -15 -15 -32 -12 -33 -8 -8 25 11 14 21 17 12 3z m105 5 c0 -2 -7 -7
-16 -10 -8 -3 -12 -2 -9 4 6 10 25 14 25 6z m41 -9 c-6 -8 -8 -17 -4 -20 3 -4
1 -7 -5 -7 -15 0 -15 13 0 28 16 16 23 15 9 -1z m-544 -3 c-3 -3 -12 -4 -19
-1 -8 3 -5 6 6 6 11 1 17 -2 13 -5z m458 -14 c-3 -5 3 -10 15 -10 12 0 19 -4
16 -9 -3 -4 -17 -6 -31 -3 -20 3 -23 7 -14 18 13 16 23 19 14 4z m1036 -4 c-9
-11 -9 -15 1 -19 7 -2 10 -8 6 -11 -3 -4 -15 1 -27 13 l-20 20 22 4 c12 2 24
5 26 6 2 0 -2 -5 -8 -13z m-912 -32 c4 3 8 -1 8 -9 0 -8 -4 -15 -8 -15 -8 0
-19 27 -18 43 1 7 3 4 6 -6 2 -9 8 -15 12 -13z m811 17 c0 -5 -7 -12 -16 -15
-14 -5 -15 -4 -4 9 14 17 20 19 20 6z m-926 -26 c-6 -16 -24 -21 -24 -7 0 11
11 22 21 22 5 0 6 -7 3 -15z m68 -7 c-7 -7 -12 -20 -12 -30 0 -10 -4 -18 -10
-18 -5 0 -10 5 -10 12 0 12 29 48 39 48 3 0 0 -5 -7 -12z m916 -6 c2 -7 -3
-12 -10 -12 -8 0 -15 7 -15 15 0 18 19 15 25 -3z m-833 -12 c3 -5 1 -10 -4
-10 -6 0 -11 5 -11 10 0 6 2 10 4 10 3 0 8 -4 11 -10z m-125 -4 c0 -2 -8 -10
-17 -17 -16 -13 -17 -12 -4 4 13 16 21 21 21 13z m840 -11 c0 -8 -9 -15 -20
-15 -11 0 -20 4 -20 10 0 5 7 7 15 4 8 -4 15 -1 15 5 0 6 2 11 5 11 3 0 5 -7
5 -15z m-777 -15 c-3 -11 -8 -20 -12 -20 -4 0 -7 9 -7 20 0 11 6 20 12 20 7 0
10 -8 7 -20z m855 13 c-10 -2 -18 -9 -18 -14 0 -5 -9 -9 -20 -9 -17 0 -19 2
-8 15 7 8 24 14 38 13 17 0 19 -2 8 -5z m-823 -23 c-3 -5 4 -11 17 -11 l23 -2
-22 -4 c-25 -5 -55 -41 -47 -55 3 -4 15 -8 27 -8 20 -1 20 -2 5 -11 -12 -7
-24 -6 -38 1 -24 13 -25 23 -4 41 9 7 20 23 25 36 5 13 11 23 14 23 4 0 3 -4
0 -10z m702 -6 c-3 -3 -12 -4 -19 -1 -8 3 -5 6 6 6 11 1 17 -2 13 -5z m43 -25
c-14 -4 -20 -7 -14 -8 7 -1 14 -8 18 -16 4 -11 -2 -15 -22 -14 -22 0 -23 2 -9
8 16 6 16 9 5 18 -7 6 -20 13 -28 17 -9 4 -6 5 6 2 12 -2 28 0 35 5 7 4 18 5
23 1 6 -3 0 -9 -14 -13z m-45 -49 c3 -5 1 -10 -4 -10 -6 0 -11 5 -11 10 0 6 2
10 4 10 3 0 8 -4 11 -10z m-206 -185 c38 -44 46 -74 34 -128 -6 -31 -13 -42
-26 -41 -9 1 -17 -4 -17 -12 0 -8 -7 -14 -15 -14 -9 0 -27 -7 -40 -16 l-25
-16 0 38 c0 35 -1 36 -14 18 -8 -10 -17 -16 -21 -13 -11 11 -18 77 -11 111 6
35 68 108 91 108 7 0 27 -16 44 -35z m-353 -14 c-17 -19 -17 -20 3 -31 18 -9
21 -8 22 7 0 12 4 8 11 -9 5 -16 13 -28 16 -28 4 0 8 -34 9 -75 1 -42 -2 -73
-7 -70 -4 3 -14 -12 -20 -32 -7 -21 -16 -42 -21 -48 -5 -5 -9 -16 -8 -25 0
-11 3 -10 10 5 9 19 9 18 5 -2 -2 -13 0 -23 5 -23 4 0 6 -7 3 -15 -5 -11 -2
-13 10 -9 9 3 13 11 9 17 -3 6 -1 7 5 3 6 -3 15 0 19 8 10 18 57 10 50 -8 -3
-7 4 -13 14 -13 11 -1 17 2 14 8 -4 5 1 12 9 15 9 3 16 13 16 21 0 9 -6 13
-15 9 -8 -3 -15 -3 -15 0 0 2 11 9 25 14 23 9 24 13 14 31 -6 13 -7 19 -1 15
6 -3 13 0 16 6 3 7 3 2 0 -11 -4 -16 -3 -21 5 -17 16 10 13 -3 -4 -20 -9 -10
-13 -25 -9 -39 7 -30 -15 -45 -73 -48 -18 -1 -23 -7 -23 -28 0 -15 5 -31 10
-34 6 -3 10 -14 10 -23 0 -9 -8 -1 -17 18 -23 47 -37 60 -67 62 -14 1 -25 7
-24 13 4 25 -15 65 -31 64 -9 0 -11 -3 -5 -5 7 -3 10 -14 7 -25 -5 -19 -6 -19
-24 2 -16 18 -19 19 -19 6 0 -10 4 -17 9 -17 12 0 38 -56 49 -107 12 -51 -2
-142 -29 -195 -36 -71 -159 -108 -159 -48 0 11 6 20 13 20 6 0 4 5 -5 11 -10
5 -18 20 -19 32 0 12 -4 31 -9 42 -5 13 -6 1 -3 -32 3 -28 3 -63 -1 -78 -6
-24 -10 -26 -48 -23 -35 3 -43 8 -49 28 -17 60 -5 299 12 255 7 -20 8 -20 8 0
1 11 9 32 19 45 l17 25 6 -60 6 -60 1 58 c2 67 22 70 22 4 1 -39 2 -41 15 -23
8 11 16 16 17 10 0 -5 4 25 7 67 5 54 12 82 25 95 16 16 82 148 115 229 6 17
22 35 34 42 32 15 32 15 13 -6z m235 -289 c-6 -2 -11 -8 -11 -14 0 -6 7 -7 16
-4 14 5 15 4 5 -8 -10 -12 -16 -13 -26 -3 -11 10 -11 15 1 28 8 8 15 22 15 30
1 8 4 5 6 -6 3 -10 0 -21 -6 -23z m89 -6 c0 -6 -4 -5 -9 3 -5 8 -15 12 -23 9
-8 -4 -14 1 -14 12 0 16 2 16 23 3 13 -9 23 -20 23 -27z m-193 -2 c-3 -3 -12
-4 -19 -1 -8 3 -5 6 6 6 11 1 17 -2 13 -5z m216 -52 c8 -18 12 -30 7 -27 -4 3
-10 0 -12 -6 -3 -8 -10 -6 -21 5 -9 10 -14 22 -11 28 4 6 10 5 15 -3 7 -11 9
-10 9 4 0 10 -7 17 -17 17 -15 0 -16 2 -3 10 8 5 15 8 16 7 0 -1 8 -17 17 -35z
m-55 -23 c-3 -8 -7 -3 -11 10 -4 17 -3 21 5 13 5 -5 8 -16 6 -23z m-78 -20 c9
-16 8 -25 -6 -40 -9 -10 -22 -19 -28 -19 -6 0 -21 -16 -34 -35 -12 -19 -27
-35 -32 -35 -11 0 8 25 58 79 20 22 31 42 29 53 -7 24 0 23 13 -3z m197 -26
c0 -41 0 -43 -6 -15 -6 31 -7 32 -26 18 -11 -9 -24 -16 -30 -16 -5 0 1 7 13
16 12 8 22 22 22 30 0 8 6 14 13 14 10 0 14 -15 14 -47z m-397 15 c0 -12 -1
-19 -3 -17 -1 2 -9 12 -16 22 -12 14 -11 17 3 17 10 0 16 -8 16 -22z m300 1
c0 -5 -5 -7 -12 -3 -6 4 -17 -1 -25 -11 -14 -20 -17 -16 -7 9 7 18 44 22 44 5z
m20 -56 l-1 -38 -14 25 c-19 33 -19 50 0 50 11 0 15 -11 15 -37z m-93 -15 c-3
-8 -6 -5 -6 6 -1 11 2 17 5 13 3 -3 4 -12 1 -19z m-193 -29 c-6 -11 -24 -2
-24 11 0 5 7 7 15 4 8 -4 12 -10 9 -15z m230 -25 c3 -8 2 -12 -4 -9 -6 3 -10
10 -10 16 0 14 7 11 14 -7z m58 -19 c-2 -19 -6 -35 -8 -35 -2 0 -4 16 -4 35 0
19 4 35 8 35 4 0 6 -16 4 -35z m25 -7 c-3 -8 -6 -5 -6 6 -1 11 2 17 5 13 3 -3
4 -12 1 -19z m-66 -25 c13 -16 12 -17 -3 -4 -17 13 -22 21 -14 21 2 0 10 -8
17 -17z m-235 -30 c-11 -11 -17 4 -9 23 7 18 8 18 11 1 2 -10 1 -21 -2 -24z
m339 -34 c-4 -13 0 -28 11 -40 20 -22 10 -26 -12 -5 -8 8 -14 23 -14 33 0 10
-7 27 -15 37 -21 27 -8 39 16 15 13 -13 18 -27 14 -40z m-384 18 c-10 -9 -11
-8 -5 6 3 10 9 15 12 12 3 -3 0 -11 -7 -18z m302 8 c-3 -9 -8 -14 -10 -11 -3
3 -2 9 2 15 9 16 15 13 8 -4z m-125 -47 c-2 -23 -8 -43 -15 -45 -8 -3 -9 6 -2
34 5 21 9 41 9 46 0 4 2 7 5 7 3 0 4 -19 3 -42z m109 -10 c-3 -7 -5 -2 -5 12
0 14 2 19 5 13 2 -7 2 -19 0 -25z m-227 -22 c0 -20 -6 -25 -35 -28 -41 -5 -44
-1 -10 12 14 5 25 16 25 25 0 8 5 15 10 15 6 0 10 -11 10 -24z m260 -62 c0
-12 -7 -24 -15 -28 -8 -3 -15 -16 -15 -28 0 -19 -2 -20 -10 -8 -15 24 -12 37
11 43 18 5 20 11 14 39 -5 24 -4 29 4 18 6 -8 11 -25 11 -36z m105 11 c11 -4
15 -9 9 -11 -16 -6 -64 13 -64 26 0 7 6 7 18 1 9 -5 26 -13 37 -16z m-538 9
c-3 -3 -12 -4 -19 -1 -8 3 -5 6 6 6 11 1 17 -2 13 -5z m224 -26 c-6 -29 -12
-33 -60 -45 -38 -10 -57 -11 -64 -4 -8 8 -2 11 18 11 44 0 95 22 95 40 0 14 8
30 15 30 2 0 0 -14 -4 -32z m-284 16 c-3 -3 -12 -4 -19 -1 -8 3 -5 6 6 6 11 1
17 -2 13 -5z m-174 -21 c-7 -2 -19 -2 -25 0 -7 3 -2 5 12 5 14 0 19 -2 13 -5z
m905 0 c-10 -2 -28 -2 -40 0 -13 2 -5 4 17 4 22 1 32 -1 23 -4z"/>
<path d="M1601 1324 c0 -11 3 -14 6 -6 3 7 2 16 -1 19 -3 4 -6 -2 -5 -13z"/>
<path d="M1258 1138 c5 -5 16 -8 23 -6 8 3 3 7 -10 11 -17 4 -21 3 -13 -5z"/>
<path d="M1352 1067 c-8 -9 -8 -17 0 -27 8 -13 9 -12 5 2 -3 9 -1 19 6 21 7 2
9 7 6 11 -3 4 -11 1 -17 -7z"/>
<path d="M972 930 c0 -14 2 -19 5 -12 2 6 2 18 0 25 -3 6 -5 1 -5 -13z"/>
<path d="M1091 924 c0 -11 3 -14 6 -6 3 7 2 16 -1 19 -3 4 -6 -2 -5 -13z"/>
<path d="M1448 2093 c6 -2 18 -2 25 0 6 3 1 5 -13 5 -14 0 -19 -2 -12 -5z"/>
<path d="M1514 2073 c4 -8 2 -13 -5 -13 -7 0 -4 -7 7 -15 19 -14 19 -14 -3
-15 -12 0 -25 -4 -28 -10 -4 -6 5 -10 19 -10 14 0 26 5 26 11 0 5 6 7 13 3 9
-6 9 -5 0 8 -7 8 -11 17 -8 20 3 3 -2 11 -12 19 -11 9 -14 10 -9 2z"/>
<path d="M1501 1986 c-11 -14 -5 -26 13 -26 6 0 4 5 -4 10 -12 8 -10 10 8 10
15 0 21 -4 16 -12 -4 -7 -3 -8 4 -4 16 10 15 14 -7 25 -14 8 -22 7 -30 -3z"/>
<path d="M1561 1964 c0 -11 3 -14 6 -6 3 7 2 16 -1 19 -3 4 -6 -2 -5 -13z"/>
<path d="M863 1405 c0 -33 2 -45 4 -27 2 18 2 45 0 60 -2 15 -4 0 -4 -33z"/>
<path d="M2172 1405 c0 -16 2 -22 5 -12 2 9 2 23 0 30 -3 6 -5 -1 -5 -18z"/>
<path d="M978 1317 c-5 -89 -11 -117 -32 -158 -34 -65 -16 -54 23 15 17 30 38
59 47 66 8 7 24 27 36 44 l21 31 -30 -28 c-39 -36 -46 -26 -53 68 l-5 70 -7
-108z"/>
<path d="M1801 1415 c1 -19 18 -51 18 -35 0 8 -4 22 -9 30 -5 8 -9 11 -9 5z"/>
<path d="M1822 1330 c0 -14 2 -19 5 -12 2 6 2 18 0 25 -3 6 -5 1 -5 -13z"/>
<path d="M1884 1211 c25 -40 48 -76 52 -80 15 -13 -60 115 -78 134 -11 11 1
-13 26 -54z"/>
<path d="M855 1148 c-4 -10 -4 -26 0 -35 8 -17 8 -17 12 0 3 9 3 25 0 35 -4
16 -4 16 -12 0z"/>
<path d="M879 1054 c-23 -25 -23 -26 -2 -13 13 7 25 19 27 26 8 19 2 16 -25
-13z"/>
<path d="M1842 820 c0 -14 2 -19 5 -12 2 6 2 18 0 25 -3 6 -5 1 -5 -13z"/>
<path d="M2089 679 c18 -17 25 -19 32 -8 10 16 11 14 -26 23 l-30 7 24 -22z"/>
<path d="M733 673 c9 -2 23 -2 30 0 6 3 -1 5 -18 5 -16 0 -22 -2 -12 -5z"/>
<path d="M2130 650 c-8 -5 -10 -10 -5 -10 6 0 3 -5 -5 -10 -12 -8 -11 -10 8
-10 12 0 22 2 22 4 0 2 3 11 6 20 7 18 -4 20 -26 6z"/>
<path d="M540 640 c-13 -8 -12 -10 3 -10 9 0 17 5 17 10 0 12 -1 12 -20 0z"/>
<path d="M620 640 c11 -7 7 -10 -17 -10 -18 0 -33 -5 -33 -10 0 -6 21 -8 58
-4 81 9 85 17 17 27 -27 4 -35 3 -25 -3z"/>
<path d="M2180 620 c0 -5 9 -10 19 -10 11 0 23 5 26 10 4 6 -5 10 -19 10 -14
0 -26 -4 -26 -10z"/>
<path d="M2030 610 c0 -5 9 -10 20 -10 11 0 20 5 20 10 0 6 -9 10 -20 10 -11
0 -20 -4 -20 -10z"/>
<path d="M628 603 c6 -2 18 -2 25 0 6 3 1 5 -13 5 -14 0 -19 -2 -12 -5z"/>
<path d="M2088 603 c7 -3 16 -2 19 1 4 3 -2 6 -13 5 -11 0 -14 -3 -6 -6z"/>
<path d="M668 583 c6 -2 18 -2 25 0 6 3 1 5 -13 5 -14 0 -19 -2 -12 -5z"/>
<path d="M938 583 c6 -2 18 -2 25 0 6 3 1 5 -13 5 -14 0 -19 -2 -12 -5z"/>
<path d="M2045 570 c-19 -8 -19 -9 3 -9 12 -1 22 4 22 9 0 6 -1 10 -2 9 -2 0
-12 -4 -23 -9z"/>
<path d="M2345 570 c-3 -6 1 -7 9 -4 18 7 21 14 7 14 -6 0 -13 -4 -16 -10z"/>
<path d="M728 563 c7 -3 16 -2 19 1 4 3 -2 6 -13 5 -11 0 -14 -3 -6 -6z"/>
<path d="M1870 561 c0 -12 25 -21 57 -21 21 0 24 2 13 15 -13 16 -70 21 -70 6z"/>
<path d="M2088 563 c7 -3 16 -2 19 1 4 3 -2 6 -13 5 -11 0 -14 -3 -6 -6z"/>
<path d="M678 553 c7 -3 16 -2 19 1 4 3 -2 6 -13 5 -11 0 -14 -3 -6 -6z"/>
<path d="M782 541 c-10 -6 -4 -10 19 -15 18 -3 34 -4 37 -1 3 3 -2 5 -11 5 -9
0 -17 5 -17 10 0 12 -10 13 -28 1z"/>
<path d="M1240 533 c-23 -12 -20 -13 35 -12 33 1 51 4 41 6 -13 3 -15 7 -7 12
21 13 -43 8 -69 -6z"/>
<path d="M1405 540 c-3 -5 1 -10 9 -10 9 0 16 5 16 10 0 6 -4 10 -9 10 -6 0
-13 -4 -16 -10z"/>
<path d="M2088 543 c7 -3 16 -2 19 1 4 3 -2 6 -13 5 -11 0 -14 -3 -6 -6z"/>
<path d="M1068 527 c20 -6 44 -6 65 0 28 8 24 9 -33 9 -57 0 -61 -1 -32 -9z"/>
<path d="M2198 533 c7 -3 16 -2 19 1 4 3 -2 6 -13 5 -11 0 -14 -3 -6 -6z"/>
<path d="M2055 520 c3 -5 16 -10 28 -10 18 0 19 2 7 10 -20 13 -43 13 -35 0z"/>
<path d="M857 513 c-14 -13 -6 -24 15 -21 27 4 36 28 11 28 -11 0 -23 -3 -26
-7z"/>
<path d="M1668 513 c12 -2 32 -2 45 0 12 2 2 4 -23 4 -25 0 -35 -2 -22 -4z"/>
<path d="M1968 513 c7 -3 16 -2 19 1 4 3 -2 6 -13 5 -11 0 -14 -3 -6 -6z"/>
<path d="M1348 503 c6 -2 18 -2 25 0 6 3 1 5 -13 5 -14 0 -19 -2 -12 -5z"/>
<path d="M1406 501 c5 -5 23 -12 39 -16 29 -6 29 -6 11 9 -21 17 -67 23 -50 7z"/>
<path d="M1577 498 c-7 -4 -4 -7 8 -6 11 1 35 -2 53 -6 19 -5 32 -4 32 2 0 12
-76 20 -93 10z"/>
<path d="M1788 503 c7 -3 16 -2 19 1 4 3 -2 6 -13 5 -11 0 -14 -3 -6 -6z"/>
<path d="M1848 503 c7 -3 16 -2 19 1 4 3 -2 6 -13 5 -11 0 -14 -3 -6 -6z"/>
<path d="M1070 490 c0 -5 6 -10 14 -10 8 0 18 5 21 10 3 6 -3 10 -14 10 -12 0
-21 -4 -21 -10z"/>
<path d="M1250 490 c0 -14 26 -23 41 -15 8 6 7 10 -2 16 -19 12 -39 11 -39 -1z"/>
<path d="M1685 490 c-4 -6 7 -10 25 -10 18 0 29 4 25 10 -3 6 -15 10 -25 10
-10 0 -22 -4 -25 -10z"/>
<path d="M1143 479 c14 -8 22 -8 30 0 8 8 3 11 -18 11 -26 -1 -28 -2 -12 -11z"/>
<path d="M1330 480 c0 -5 10 -10 23 -10 18 0 19 2 7 10 -19 13 -30 13 -30 0z"/>
<path d="M1853 483 c9 -2 23 -2 30 0 6 3 -1 5 -18 5 -16 0 -22 -2 -12 -5z"/>
<path d="M865 470 c-4 -6 5 -10 19 -10 14 0 26 5 26 10 0 6 -9 10 -19 10 -11
0 -23 -4 -26 -10z"/>
<path d="M1495 470 c-4 -6 7 -10 25 -10 18 0 29 4 25 10 -3 6 -15 10 -25 10
-10 0 -22 -4 -25 -10z"/>
<path d="M1220 461 c0 -6 -7 -11 -15 -11 -9 0 -12 -6 -9 -15 7 -18 51 -16 66
2 13 16 11 18 -19 27 -14 5 -23 3 -23 -3z"/>
<path d="M1585 460 c3 -5 15 -10 25 -10 10 0 22 5 25 10 4 6 -7 10 -25 10 -18
0 -29 -4 -25 -10z"/>
<path d="M1745 460 c3 -5 13 -10 21 -10 8 0 14 5 14 10 0 6 -9 10 -21 10 -11
0 -17 -4 -14 -10z"/>
<path d="M1065 445 c-23 -11 -25 -14 -10 -14 30 -1 65 10 65 20 0 12 -19 10
-55 -6z"/>
<path d="M1430 446 c0 -2 7 -6 15 -10 8 -3 15 -1 15 4 0 6 -7 10 -15 10 -8 0
-15 -2 -15 -4z"/>
<path d="M1603 425 c0 -7 5 -12 11 -12 6 0 37 -4 69 -8 38 -5 57 -4 57 3 0 18
-18 23 -79 26 -37 1 -58 -2 -58 -9z"/>
<path d="M1134 396 c-10 -8 -16 -17 -12 -21 8 -8 48 13 48 25 0 14 -13 12 -36
-4z"/>
<path d="M1365 390 c3 -5 10 -10 16 -10 5 0 9 5 9 10 0 6 -7 10 -16 10 -8 0
-12 -4 -9 -10z"/>
</g>
</svg>
